<mxfile host="app.diagrams.net" modified="2024-01-11T12:15:14.276Z" agent="Mozilla/5.0 (Windows NT 10.0; Win64; x64) AppleWebKit/537.36 (KHTML, like Gecko) Chrome/120.0.0.0 Safari/537.36" etag="1CKUBovZO-JTagO1Ac7a" version="22.1.18" type="github">
  <diagram name="Страница — 1" id="2fHAUWZyCdi4XozQJi09">
    <mxGraphModel dx="977" dy="515" grid="1" gridSize="10" guides="1" tooltips="1" connect="1" arrows="1" fold="1" page="1" pageScale="1" pageWidth="827" pageHeight="1169" math="0" shadow="0">
      <root>
        <mxCell id="0" />
        <mxCell id="1" parent="0" />
        <mxCell id="XQz_W-Sro0mG3QIUP-1Q-1" value="&lt;h1&gt;Create campaign&lt;/h1&gt;&lt;p&gt;Campaign creation flow after user press create new campaign button on campaigns dashboard&lt;/p&gt;" style="text;html=1;strokeColor=none;fillColor=none;spacing=5;spacingTop=-20;whiteSpace=wrap;overflow=hidden;rounded=0;" vertex="1" parent="1">
          <mxGeometry x="40" y="39" width="280" height="100" as="geometry" />
        </mxCell>
        <mxCell id="XQz_W-Sro0mG3QIUP-1Q-3" value="" style="shape=umlLifeline;perimeter=lifelinePerimeter;whiteSpace=wrap;html=1;container=1;dropTarget=0;collapsible=0;recursiveResize=0;outlineConnect=0;portConstraint=eastwest;newEdgeStyle={&quot;curved&quot;:0,&quot;rounded&quot;:0};participant=umlActor;" vertex="1" parent="1">
          <mxGeometry x="80" y="160" width="20" height="880" as="geometry" />
        </mxCell>
        <mxCell id="XQz_W-Sro0mG3QIUP-1Q-6" value="" style="html=1;points=[[0,0,0,0,5],[0,1,0,0,-5],[1,0,0,0,5],[1,1,0,0,-5]];perimeter=orthogonalPerimeter;outlineConnect=0;targetShapes=umlLifeline;portConstraint=eastwest;newEdgeStyle={&quot;curved&quot;:0,&quot;rounded&quot;:0};" vertex="1" parent="XQz_W-Sro0mG3QIUP-1Q-3">
          <mxGeometry x="5" y="70" width="10" height="340" as="geometry" />
        </mxCell>
        <mxCell id="XQz_W-Sro0mG3QIUP-1Q-4" value="brackhits-web&lt;br&gt;Frontend" style="shape=umlLifeline;perimeter=lifelinePerimeter;whiteSpace=wrap;html=1;container=1;dropTarget=0;collapsible=0;recursiveResize=0;outlineConnect=0;portConstraint=eastwest;newEdgeStyle={&quot;curved&quot;:0,&quot;rounded&quot;:0};" vertex="1" parent="1">
          <mxGeometry x="220" y="160" width="100" height="880" as="geometry" />
        </mxCell>
        <mxCell id="XQz_W-Sro0mG3QIUP-1Q-9" value="" style="html=1;points=[[0,0,0,0,5],[0,1,0,0,-5],[1,0,0,0,5],[1,1,0,0,-5]];perimeter=orthogonalPerimeter;outlineConnect=0;targetShapes=umlLifeline;portConstraint=eastwest;newEdgeStyle={&quot;curved&quot;:0,&quot;rounded&quot;:0};" vertex="1" parent="XQz_W-Sro0mG3QIUP-1Q-4">
          <mxGeometry x="45" y="100" width="10" height="240" as="geometry" />
        </mxCell>
        <mxCell id="XQz_W-Sro0mG3QIUP-1Q-13" value="validate&lt;br&gt;input" style="html=1;align=left;spacingLeft=2;endArrow=block;rounded=0;edgeStyle=orthogonalEdgeStyle;curved=0;rounded=0;exitX=0.995;exitY=0.151;exitDx=0;exitDy=0;exitPerimeter=0;" edge="1" target="XQz_W-Sro0mG3QIUP-1Q-9" parent="XQz_W-Sro0mG3QIUP-1Q-4" source="XQz_W-Sro0mG3QIUP-1Q-9">
          <mxGeometry relative="1" as="geometry">
            <mxPoint x="60" y="120" as="sourcePoint" />
            <Array as="points">
              <mxPoint x="90" y="121" />
              <mxPoint x="90" y="140" />
            </Array>
            <mxPoint x="64.99999999999977" y="150" as="targetPoint" />
          </mxGeometry>
        </mxCell>
        <mxCell id="XQz_W-Sro0mG3QIUP-1Q-5" value="hum-node-api&lt;br&gt;Backend" style="shape=umlLifeline;perimeter=lifelinePerimeter;whiteSpace=wrap;html=1;container=1;dropTarget=0;collapsible=0;recursiveResize=0;outlineConnect=0;portConstraint=eastwest;newEdgeStyle={&quot;curved&quot;:0,&quot;rounded&quot;:0};" vertex="1" parent="1">
          <mxGeometry x="414" y="160" width="100" height="880" as="geometry" />
        </mxCell>
        <mxCell id="XQz_W-Sro0mG3QIUP-1Q-14" value="" style="html=1;points=[[0,0,0,0,5],[0,1,0,0,-5],[1,0,0,0,5],[1,1,0,0,-5]];perimeter=orthogonalPerimeter;outlineConnect=0;targetShapes=umlLifeline;portConstraint=eastwest;newEdgeStyle={&quot;curved&quot;:0,&quot;rounded&quot;:0};" vertex="1" parent="XQz_W-Sro0mG3QIUP-1Q-5">
          <mxGeometry x="45" y="200" width="10" height="80" as="geometry" />
        </mxCell>
        <mxCell id="XQz_W-Sro0mG3QIUP-1Q-10" value="dispatch" style="html=1;verticalAlign=bottom;endArrow=block;curved=0;rounded=0;entryX=0;entryY=0;entryDx=0;entryDy=5;" edge="1" target="XQz_W-Sro0mG3QIUP-1Q-9" parent="1" source="XQz_W-Sro0mG3QIUP-1Q-6">
          <mxGeometry relative="1" as="geometry">
            <mxPoint x="195" y="295" as="sourcePoint" />
          </mxGeometry>
        </mxCell>
        <mxCell id="XQz_W-Sro0mG3QIUP-1Q-11" value="return" style="html=1;verticalAlign=bottom;endArrow=open;dashed=1;endSize=8;curved=0;rounded=0;exitX=0;exitY=1;exitDx=0;exitDy=-5;" edge="1" source="XQz_W-Sro0mG3QIUP-1Q-9" parent="1" target="XQz_W-Sro0mG3QIUP-1Q-6">
          <mxGeometry relative="1" as="geometry">
            <mxPoint x="195" y="365" as="targetPoint" />
          </mxGeometry>
        </mxCell>
        <mxCell id="XQz_W-Sro0mG3QIUP-1Q-15" value="GET /campaigns?" style="html=1;verticalAlign=bottom;endArrow=block;curved=0;rounded=0;entryX=0;entryY=0;entryDx=0;entryDy=5;" edge="1" target="XQz_W-Sro0mG3QIUP-1Q-14" parent="1" source="XQz_W-Sro0mG3QIUP-1Q-9">
          <mxGeometry relative="1" as="geometry">
            <mxPoint x="389" y="325" as="sourcePoint" />
          </mxGeometry>
        </mxCell>
        <mxCell id="XQz_W-Sro0mG3QIUP-1Q-16" value="return" style="html=1;verticalAlign=bottom;endArrow=open;dashed=1;endSize=8;curved=0;rounded=0;exitX=0;exitY=1;exitDx=0;exitDy=-5;" edge="1" source="XQz_W-Sro0mG3QIUP-1Q-14" parent="1" target="XQz_W-Sro0mG3QIUP-1Q-9">
          <mxGeometry relative="1" as="geometry">
            <mxPoint x="389" y="395" as="targetPoint" />
          </mxGeometry>
        </mxCell>
        <mxCell id="XQz_W-Sro0mG3QIUP-1Q-17" value="&lt;font style=&quot;font-size: 9px;&quot;&gt;Check if campaign url is available&lt;/font&gt;" style="text;html=1;strokeColor=none;fillColor=none;align=center;verticalAlign=middle;whiteSpace=wrap;rounded=0;" vertex="1" parent="1">
          <mxGeometry x="275" y="320" width="139" height="10" as="geometry" />
        </mxCell>
      </root>
    </mxGraphModel>
  </diagram>
</mxfile>
